<?xml version="1.0" encoding="UTF-8"?>
<svg width="411px" height="476px" viewBox="0 0 411 476" version="1.1" xmlns="http://www.w3.org/2000/svg" xmlns:xlink="http://www.w3.org/1999/xlink">
    <!-- Generator: sketchtool 61.2 (101010) - https://sketch.com -->
    <title>B670C354-11E6-4AFD-BE55-A3219637E3DB</title>
    <desc>Created with sketchtool.</desc>
    <g id="Login,-Staff,-Protocol" stroke="none" stroke-width="1" fill="none" fill-rule="evenodd">
        <g id="Admin_Login" transform="translate(-179.000000, -111.000000)">
            <g id="mask-man" transform="translate(179.000000, 112.000000)">
                <path d="M259.133,130.746 L219.338,130.746 C218.564801,130.746 217.938,131.372801 217.938,132.146 L217.938,151.746 C217.938,152.519199 218.564801,153.146 219.338,153.146 L259.133,153.146 C259.906199,153.146 260.533,152.519199 260.533,151.746 L260.533,132.146 C260.533,131.372801 259.906199,130.746 259.133,130.746 Z" id="Path" stroke="#AADAF1" stroke-width="1.4" stroke-linecap="round" stroke-linejoin="round"></path>
                <path d="M237.818,108.297 L198.03,108.297 C197.256801,108.297 196.63,108.923801 196.63,109.697 L196.63,129.297 C196.63,130.070199 197.256801,130.697 198.03,130.697 L237.818,130.697 C238.591199,130.697 239.218,130.070199 239.218,129.297 L239.218,109.697 C239.218,108.923801 238.591199,108.297 237.818,108.297 Z" id="Path" stroke="#AADAF1" stroke-width="1.4" stroke-linecap="round" stroke-linejoin="round"></path>
                <path d="M216.503,130.746 L176.715,130.746 C175.941801,130.746 175.315,131.372801 175.315,132.146 L175.315,151.746 C175.315,152.519199 175.941801,153.146 176.715,153.146 L216.503,153.146 C217.276199,153.146 217.903,152.519199 217.903,151.746 L217.903,132.146 C217.903,131.372801 217.276199,130.746 216.503,130.746 Z" id="Path" stroke="#AADAF1" stroke-width="1.4" stroke-linecap="round" stroke-linejoin="round"></path>
                <path d="M279.769,153.188 L239.981,153.188 C239.207801,153.188 238.581,153.814801 238.581,154.588 L238.581,174.188 C238.581,174.961199 239.207801,175.588 239.981,175.588 L279.769,175.588 C280.542199,175.588 281.169,174.961199 281.169,174.188 L281.169,154.588 C281.169,153.814801 280.542199,153.188 279.769,153.188 Z" id="Path" stroke="#AADAF1" stroke-width="1.4" stroke-linecap="round" stroke-linejoin="round"></path>
                <path d="M213.766,393.995 L348.6,393.995 C350.455677,393.995 351.96,395.499323 351.96,397.355 L351.96,397.355 C351.95614,399.207943 350.452947,400.708 348.6,400.708 L213.766,400.708 C211.913053,400.708 210.40986,399.207943 210.406,397.355 L210.406,397.355 C210.406,395.499323 211.910323,393.995 213.766,393.995 L213.766,393.995 Z" id="Path" fill="#FFFFFF"></path>
                <path d="M3.353,414.210993 L138.208,414.210993 C139.097841,414.209136 139.951773,414.561799 140.580987,415.191013 C141.210201,415.820227 141.562864,416.674159 141.561007,417.564 L141.561007,417.564 C141.562864,418.453841 141.210201,419.307773 140.580987,419.936987 C139.951773,420.566201 139.097841,420.918864 138.208,420.917007 L3.353,420.917007 C1.50118923,420.917007 0,419.415811 0,417.564 L0,417.564 C0,415.712189 1.50118923,414.210993 3.353,414.210993 L3.353,414.210993 Z" id="Path" fill="#FFFFFF"></path>
                <path d="M297.15,396.613 C274.171101,396.623456 253.398257,410.295013 244.3,431.396 C236.839947,425.378718 226.20914,425.323516 218.687,431.263 C213.516488,418.946509 201.793462,410.640857 188.4593,409.846962 C175.125138,409.053067 162.499413,415.909034 155.904,427.525 C149.08752,423.311196 140.73457,422.395089 133.166817,425.031308 C125.599063,427.667526 119.623129,433.575084 116.9,441.112 C117.516,441.112 118.097,440.937 118.72,440.937 L385.217,440.937 C383.234023,433.651658 377.585561,427.933794 370.324977,425.862 C363.064393,423.790207 355.249039,425.666197 349.72,430.808 C340.493582,410.02278 319.890978,396.621486 297.15,396.613 Z" id="Path" fill="#DEDEDE"></path>
                <path d="M102.459,434.231 L407.351,434.231 C409.203943,434.23486 410.704,435.738053 410.704,437.591 L410.704,437.591 C410.700149,439.441213 409.201213,440.940149 407.351,440.944 L102.459,440.944 C100.608787,440.940149 99.1098506,439.441213 99.106,437.591 L99.106,437.591 C99.106,435.738053 100.606057,434.23486 102.459,434.231 L102.459,434.231 Z" id="Path" fill="#DEDEDE"></path>
                <polygon id="Path" fill="#F77F89" points="52.969 395.78 44.1 408.205 62.37 431.102 70.77 416.402"></polygon>
                <path d="M43.281,402.556 L22.281,426.818 L55.272,465.318 C55.272,465.318 77.168,465.08 84.084,465.08 C83.944,456.68 77.84,439.278 60.844,439.95 C64.274,433.93 66.71,428.967 66.71,428.967 L43.281,402.556 Z" id="Path" fill="#6367FD"></path>
                <path d="M60.83,439.971 C51.331,437.038 47.012,440.86 40.348,447.93 C35.693,452.872 25.991,452.452 20.048,449.617" id="Path" stroke="#4C4FD9" stroke-width="1.4" stroke-linecap="round" stroke-linejoin="round"></path>
                <path d="M39.06,470.827 C42.1905055,472.171402 45.4230445,473.26452 48.727,474.096 C57.421,466.396 62.566,448.119 60.935,439.971" id="Path" stroke="#4C4FD9" stroke-width="1.4" stroke-linecap="round" stroke-linejoin="round"></path>
                <path d="M34.797,412.104 C38.9824093,415.271885 41.0793534,420.489931 40.2499296,425.673097 C39.4205059,430.856262 35.7999603,435.159381 30.835,436.863" id="Path" stroke="#4C4FD9" stroke-width="1.4" stroke-linecap="round" stroke-linejoin="round"></path>
                <polyline id="Path" stroke="#4C4FD9" stroke-width="1.4" stroke-linecap="round" stroke-linejoin="round" points="25.942 422.569 58.415 458.031 82.474 456.631"></polyline>
                <polygon id="Path" fill="#F7D167" points="105.322 293.118 49.798 394.877 71.057 419.762 171.388 316.232 149.366 285.11"></polygon>
                <line x1="82.6" y1="407.855" x2="57.834" y2="380.142" id="Path" stroke="#FF3274" stroke-width="1.4" stroke-linecap="round" stroke-linejoin="round"></line>
                <polygon id="Path" fill="#BF9111" points="149.359 285.117 105.329 293.125 82.929 334.208 121.38 333.291 133.917 354.9 171.388 316.246"></polygon>
                <path d="M59.192,405.874 C81.942,379.225 151.592,298.004 151.592,298.004" id="Path" stroke="#FF3274" stroke-width="1.4" stroke-linecap="round" stroke-linejoin="round"></path>
                <polygon id="Path" fill="#F77F89" points="210.406 429.17 217.112 443.17 247.17 437.731 242.2 420.868"></polygon>
                <path d="M212.653,443.226 L222.922,472.626 C222.922,472.626 282.331,460.726 286.846,459.557 C278.446,439.817 261.212,443.128 253.652,445.018 C251.756682,441.42206 250.064687,437.722575 248.584,433.937 L212.653,443.226 Z" id="Path" fill="#6367FD"></path>
                <path d="M253.148,438.256 C254.366,434.294 257.194,431.655 259.448,432.355 C261.702,433.055 262.57,436.821 261.352,440.755 C260.134,444.689 257.306,447.349 255.052,446.656 C252.798,445.963 251.93,442.211 253.148,438.256 Z" id="Path" stroke="#4C4FD9" stroke-width="1.4" stroke-linecap="round" stroke-linejoin="round"></path>
                <path d="M263.102,437.752 C266.252,434.525 270.172,433.51 271.866,435.491 C273.56,437.472 272.37,441.693 269.22,444.92 C266.07,448.147 262.15,449.169 260.456,447.188 C258.762,445.207 259.952,441 263.102,437.752 Z" id="Path" stroke="#4C4FD9" stroke-width="1.4" stroke-linecap="round" stroke-linejoin="round"></path>
                <path d="M235.697,206.92 C239.421,209.93 243.285,213.514 248.248,215.39 C255.668,217.189 269.248,232.071 269.248,235.277 C269.248,238.315 266.539,239.337 264.852,239.477 C263.396,239.568 260.295,236.201 259.511,235.242 C260.862,238.322 261.646,242.494 260.148,243.803 C258.65,245.112 256.494,245.567 255.024,243.873 C252.609,241.073 253.204,237.895 252.98,236.033 C251.79,233.758 248.549,228.697 247.177,228.081 C246.218,228.13 244.776,228.466 244.503,229.999 C244.23,231.532 247.793,234.955 248.192,236.383 C248.192,238.196 246.211,240.499 244.503,240.044 C242.557,239.526 236.537,233.681 235.207,232.085 C233.415,229.936 232.603,225.253 231.644,223.685 C230.685,222.117 226.961,218.785 226.268,218.085 C225.575,217.385 231.98,203.903 235.697,206.92 Z" id="Path" fill="#F77F89"></path>
                <path d="M198.527,133.539 C211.904,144.9 231.924,189.644 244.79,200.655 C243.446,207.564 222.131,233.296 207.067,227.164 C188.195,219.478 188.426,124.964 198.527,133.539 Z" id="Path" fill="#3B4161"></path>
                <polygon id="Path" fill="#F7D167" points="208.922 197.316 248.584 422.527 207.032 432.327 152.467 289.149 166.019 189.644"></polygon>
                <line x1="173.901" y1="345.387" x2="154.392" y2="294.189" id="Path" stroke="#FF3274" stroke-width="1.4" stroke-linecap="round" stroke-linejoin="round"></line>
                <line x1="225.099" y1="428.071" x2="161" y2="226.499" id="Path" stroke="#FF3274" stroke-width="1.4" stroke-linecap="round" stroke-linejoin="round"></line>
                <path d="M212.436,217.294 C206.836,219.639 178.136,224.938 167.048,223.776" id="Path" stroke="#FF3274" stroke-width="1.4" stroke-linecap="round" stroke-linejoin="round"></path>
                <path d="M92.085,163.548 L167.342,171.535 C171.829,172.011 175.042,176.239 174.552,180.985 L162.33,296.1 C161.826,300.839 157.787,304.297 153.3,303.8 L78.043,295.841 C73.556,295.365 70.343,291.137 70.833,286.391 L83.048,171.276 C83.552,166.53 87.598,163.1 92.085,163.548 Z" id="Path" fill="#6367FD"></path>
                <path d="M94.556,233.688 C94.556,217.837428 107.405428,204.988 123.256,204.988 C139.106572,204.988 151.956,217.837428 151.956,233.688 C151.956,249.538572 139.106572,262.388 123.256,262.388 C107.405428,262.388 94.556,249.538572 94.556,233.688 Z" id="Path" stroke="#4C4FD9" stroke-width="1.4" stroke-linecap="round" stroke-linejoin="round"></path>
                <path d="M121.408,34.93 C121.408,27.783 125.433,21.987 130.403,21.987 C135.373,21.987 139.405,27.783 139.405,34.93 C139.405,42.077 135.373,47.873 130.403,47.873 C125.433,47.873 121.408,42.077 121.408,34.93 Z" id="Path" fill="#F77F89"></path>
                <path d="M126.475999,41.72 C126.475999,30.091478 133.481227,19.6081068 144.224851,15.1587183 C154.968476,10.7093298 167.334482,13.1702554 175.556088,21.3938633 C183.777693,29.6174712 186.235608,41.9840766 181.783603,52.7266172 C177.331598,63.4691579 166.846522,70.4718314 155.218,70.4690009 C147.593935,70.4690009 140.282233,67.439873 134.891862,62.0481884 C129.50149,56.6565037 126.474143,49.3440651 126.475999,41.72 L126.475999,41.72 Z" id="Path" fill="#F77F89"></path>
                <path d="M116.746,225.176 C115.409,229.635 111.076,238.91 115.199,255.507 C107.387,267.582 111.034,276.087 128.926,278.222 C131.936,274.547 134.953,272.139 138.313,266.833 C139.405,262.059 139.307,254.73 139.405,252.742 C139.594,248.724 133.707,232.827 135.17,225.687 C136.633,218.547 118.083,220.71 116.746,225.176 Z" id="Path" fill="#F77F89"></path>
                <path d="M152.418,80.115 C111.062,80.115 95.319,167.02 99.834,222.628 C108.409,228.039 142.632,230.146 152.418,227.577 C154.518,217.812 155.218,176.946 155.687,170.296 C178.528,172.536 174.587,176.071 171.829,206.64 C183.729,207.053 199.759,203.84 211.729,198.814 C213.409,177.856 201.089,80.115 152.418,80.115 Z" id="Path" fill="#3B4161"></path>
                <path d="M94.556,168.819 L100.016,116.564 C101.79449,99.5421038 117.035075,87.1847881 134.057,88.963 L139.916,89.572 C156.937896,91.3504898 169.295212,106.591075 167.517,123.613 L161.917,177.338" id="Path" stroke="#6367FD" stroke-width="4.739" stroke-linecap="round" stroke-linejoin="round"></path>
                <path d="M135.499,58.541 C137.655,67.802 138.194,80.843 137.837,85.967 C143.318,89.201 157.528,91.448 164.36,82.278 C161.126,74.459 160.405,70.679 160.678,66.178 C160.951,61.677 133.343,49.28 135.499,58.541 Z" id="Path" fill="#F77F89"></path>
                <path d="M144.662,68.467 C144.053,63.497 147.63,51.8 149.674,50.176 C168.889,50.876 180.817,37.191 182.756,33.446 C184.549629,35.8272031 185.855589,38.5390339 186.599,41.426 C187.096,43.33 186.662,44.667 183.407,47.397 C182.581,58.618 172.396,76.433 144.662,68.467 Z" id="Path" fill="#FFFFFF"></path>
                <path d="M151.2,51.359 C151.2,51.359 133.7,37.037 128.618,36.337" id="Path" stroke="#FFFFFF" stroke-width="2.135" stroke-linecap="round" stroke-linejoin="round"></path>
                <path d="M165.473,36.358 C165.473,33.866 166.285,31.843 167.286,31.843 C168.287,31.843 169.099,33.866 169.099,36.358 C169.099,38.85 168.287,40.873 167.286,40.873 C166.285,40.873 165.473,38.85 165.473,36.358 Z" id="Path" fill="#CB5D66"></path>
                <path d="M153.958,212.037 C147.301,212.996 111.083,211.428 99.106,206.5" id="Path" stroke="#737999" stroke-width="1.4" stroke-linecap="round" stroke-linejoin="round"></path>
                <path d="M155.687,170.296 C155.218,156.597 167.685,112.119 143.045,93.828" id="Path" stroke="#737999" stroke-width="1.4" stroke-linecap="round" stroke-linejoin="round"></path>
                <line x1="155.694" y1="170.219" x2="143.045" y2="175.637" id="Path" stroke="#737999" stroke-width="1.4" stroke-linecap="round" stroke-linejoin="round"></line>
                <line x1="143.598" y1="169.015" x2="155.729" y2="169.869" id="Path" stroke="#737999" stroke-width="1.4" stroke-linecap="round" stroke-linejoin="round"></line>
                <line x1="145.397" y1="160.482" x2="155.743" y2="169.778" id="Path" stroke="#737999" stroke-width="1.4" stroke-linecap="round" stroke-linejoin="round"></line>
                <path d="M211.764,198.8 C212.464,189.637 210.532,165.802 204.064,141.876" id="Path" stroke="#737999" stroke-width="1.4" stroke-linecap="round" stroke-linejoin="round"></path>
                <path d="M235.277,189.553 C229.677,199.437 216.377,210.112 211.547,212.233" id="Path" stroke="#737999" stroke-width="1.4" stroke-linecap="round" stroke-linejoin="round"></path>
                <path d="M196.343,221.081 C195.755,217.539 193.641,204.386 193.641,204.386" id="Path" stroke="#FF3274" stroke-width="1.4" stroke-linecap="round" stroke-linejoin="round"></path>
                <line x1="246.113" y1="408.52" x2="200.69" y2="415.688" id="Path" stroke="#FF3274" stroke-width="1.4" stroke-linecap="round" stroke-linejoin="round"></line>
                <path d="M233.1,334.117 C232.295843,334.207242 231.487203,334.251647 230.678,334.250044 C219.585349,334.252034 210.23893,325.968485 208.908292,314.955933 C207.577653,303.943381 214.682103,293.672086 225.456,291.032" id="Path" stroke="#FF3274" stroke-width="1.4" stroke-linecap="round" stroke-linejoin="round"></path>
                <line x1="220.969" y1="467.047" x2="284.508" y2="455" id="Path" stroke="#4C4FD9" stroke-width="1.4" stroke-linecap="round" stroke-linejoin="round"></line>
                <path d="M215.887,453.236 C220.258965,451.52087 225.196105,452.077793 229.076125,454.723771 C232.956144,457.369748 235.277344,461.762645 235.277019,466.459 C235.279014,467.692136 235.12137,468.920344 234.808,470.113" id="Path" stroke="#4C4FD9" stroke-width="1.4" stroke-linecap="round" stroke-linejoin="round"></path>
                <path d="M144.963,67.417 C142.765,66.584 133.931,63.504 129.339,54.25" id="Path" stroke="#FFFFFF" stroke-width="2.135" stroke-linecap="round" stroke-linejoin="round"></path>
                <path d="M120.889997,47.194 C120.887169,43.4470026 123.142501,40.0675157 126.603734,38.6322938 C130.064967,37.1970719 134.049985,37.9889587 136.699513,40.6384867 C139.349041,43.2880147 140.140928,47.2730328 138.705706,50.734266 C137.270484,54.1954992 133.890997,56.4508311 130.144,56.4480027 C125.034757,56.4441396 120.89386,52.3032432 120.889997,47.194 Z" id="Path" fill="#F77F89"></path>
                <path d="M138.999,49.903 C137.805677,53.793066 134.212984,56.4485349 130.144,56.4480001" id="Path" stroke="#CB5D66" stroke-width="1.4" stroke-linecap="round" stroke-linejoin="round"></path>
                <path d="M122.843,41.503 C124.179174,39.7868289 126.077919,38.5970148 128.205,38.143" id="Path" stroke="#CB5D66" stroke-width="1.4" stroke-linecap="round" stroke-linejoin="round"></path>
                <path d="M144.9,0.798 C136.895162,2.64163115 129.950762,7.59009297 125.594895,14.5544908 C121.239029,21.5188887 119.828611,29.9285668 121.674,37.933 L182.035,24.024 C180.191369,16.0191617 175.242907,9.07476183 168.278509,4.71889525 C161.314111,0.36302868 152.904433,-1.04738919 144.9,0.798 L144.9,0.798 Z" id="Path" fill="#F2E283"></path>
                <path d="M159.089,19.551 L202.706,9.499 C206.318,8.659 209.706,10.066 210.322,12.621 L210.322,12.621 C210.91,15.183 208.46,17.934 204.841,18.774 L161.224,28.826 C157.605,29.659 154.224,28.259 153.608,25.697 L153.608,25.697 C153.013,23.135 155.47,20.384 159.089,19.551 Z" id="Path" fill="#F2E283"></path>
                <path d="M113.925,272.594 C115.788707,270.61766 117.459922,268.468286 118.916,266.175" id="Path" stroke="#CB5D66" stroke-width="1.4" stroke-linecap="round" stroke-linejoin="round"></path>
                <path d="M121.653,276.787 C124.593,273.945 128.898,267.946 131.096,264.348" id="Path" stroke="#CB5D66" stroke-width="1.4" stroke-linecap="round" stroke-linejoin="round"></path>
                <path d="M245.343,228.62 C249.753,224.959 256.634,232.456 259.763,235.48" id="Path" stroke="#CB5D66" stroke-width="1.4" stroke-linecap="round" stroke-linejoin="round"></path>
                <path d="M131.747,50.96 C131.242157,51.1832205 130.695989,51.2977012 130.144,51.2960187 C128.45804,51.2986011 126.952402,50.2412266 126.382614,48.654466 C125.812826,47.0677053 126.301876,45.2940607 127.60436,44.2235449 C128.906844,43.1530292 130.74162,43.0167131 132.188,43.883" id="Path" stroke="#CB5D66" stroke-width="1.4" stroke-linecap="round" stroke-linejoin="round"></path>
                <path d="M159.642,0.994 C150.889885,-1.27176552 141.584727,0.397425685 134.16585,5.56399906 C126.746974,10.7305724 121.954221,18.8792956 121.044,27.874" id="Path" stroke="#FF3274" stroke-width="1.4" stroke-linecap="round" stroke-linejoin="round"></path>
                <path d="M182.756,33.446 C184.549629,35.8272031 185.855589,38.5390339 186.599,41.426 C187.096,43.33 186.662,44.667 183.407,47.397 C182.763,56.098 176.498,68.761 160.79,70.301" id="Path" stroke="#C9C9C9" stroke-width="1.4" stroke-linecap="round" stroke-linejoin="round"></path>
            </g>
        </g>
    </g>
</svg>